HIERARCHY
ROOT hip
{
  OFFSET 0 0 0
  CHANNELS 6 Xposition Yposition Zposition Zrotation Yrotation Xrotation
  JOINT abdomen
  {
    OFFSET 0 20.6881 -0.73152
    CHANNELS 3 Zrotation Xrotation Yrotation
    JOINT chest
    {
      OFFSET 0 11.7043 -0.48768
      CHANNELS 3 Zrotation Xrotation Yrotation
      JOINT neck
      {
        OFFSET 0 22.1894 -2.19456
        CHANNELS 3 Zrotation Xrotation Yrotation
        JOINT head
        {
          OFFSET -0.24384 7.07133 1.2192
          CHANNELS 3 Zrotation Xrotation Yrotation
          JOINT leftEye
          {
            OFFSET 4.14528 8.04674 8.04672
            CHANNELS 3 Zrotation Xrotation Yrotation
            End Site
            {
              OFFSET 1 0 0
            }
          }
          JOINT rightEye
          {
            OFFSET -3.6576 8.04674 8.04672
            CHANNELS 3 Zrotation Xrotation Yrotation
            End Site
            {
              OFFSET 1 0 0
            }
          }
        }
      }
      JOINT rCollar
      {
        OFFSET -2.68224 19.2634 -4.8768
        CHANNELS 3 Zrotation Xrotation Yrotation
        JOINT rShldr
        {
          OFFSET -8.77824 -1.95073 1.46304
          CHANNELS 3 Zrotation Xrotation Yrotation
          JOINT rForeArm
          {
            OFFSET -28.1742 -1.7115 0.48768
            CHANNELS 3 Zrotation Xrotation Yrotation
            JOINT rHand
            {
              OFFSET -22.5879 0.773209 7.07136
              CHANNELS 3 Zrotation Xrotation Yrotation
              JOINT rThumb1
              {
                OFFSET -1.2192 -0.487915 3.41376
                CHANNELS 3 Zrotation Xrotation Yrotation
                JOINT rThumb2
                {
                  OFFSET -3.37035 -0.52449 3.41376
                  CHANNELS 3 Zrotation Xrotation Yrotation
                  End Site
                  {
                    OFFSET -1.78271 -1.18214 1.43049
                  }
                }
              }
              JOINT rIndex1
              {
                OFFSET -7.75947 0.938293 5.60832
                CHANNELS 3 Zrotation Xrotation Yrotation
                JOINT rIndex2
                {
                  OFFSET -2.54057 -0.884171 1.56538
                  CHANNELS 3 Zrotation Xrotation Yrotation
                  End Site
                  {
                    OFFSET -1.62519 -0.234802 1.16502
                  }
                }
              }
              JOINT rMid1
              {
                OFFSET -8.24714 1.18213 3.41376
                CHANNELS 3 Zrotation Xrotation Yrotation
                JOINT rMid2
                {
                  OFFSET -3.10165 -0.590103 1.0647
                  CHANNELS 3 Zrotation Xrotation Yrotation
                  End Site
                  {
                    OFFSET -2.48547 -0.328903 0.83742
                  }
                }
              }
              JOINT rRing1
              {
                OFFSET -8.82822 0.546677 1.51678
                CHANNELS 3 Zrotation Xrotation Yrotation
                JOINT rRing2
                {
                  OFFSET -2.60934 -0.819778 -0.0198488
                  CHANNELS 3 Zrotation Xrotation Yrotation
                  End Site
                  {
                    OFFSET -2.33842 -0.294052 0.168128
                  }
                }
              }
              JOINT rPinky1
              {
                OFFSET -8.27202 -0.0477905 -0.4584
                CHANNELS 3 Zrotation Xrotation Yrotation
                JOINT rPinky2
                {
                  OFFSET -1.82734 -0.647385 -0.700984
                  CHANNELS 3 Zrotation Xrotation Yrotation
                  End Site
                  {
                    OFFSET -1.69225 -0.51767 -0.607171
                  }
                }
              }
            }
          }
        }
      }
      JOINT lCollar
      {
        OFFSET 2.68224 19.2634 -4.8768
        CHANNELS 3 Zrotation Xrotation Yrotation
        JOINT lShldr
        {
          OFFSET 8.77824 -1.95073 1.46304
          CHANNELS 3 Zrotation Xrotation Yrotation
          JOINT lForeArm
          {
            OFFSET 28.1742 -1.7115 0.48768
            CHANNELS 3 Zrotation Xrotation Yrotation
            JOINT lHand
            {
              OFFSET 22.5879 0.773209 7.07136
              CHANNELS 3 Zrotation Xrotation Yrotation
              JOINT lThumb1
              {
                OFFSET 1.2192 -0.487915 3.41376
                CHANNELS 3 Zrotation Xrotation Yrotation
                JOINT lThumb2
                {
                  OFFSET 3.37035 -0.52449 3.41376
                  CHANNELS 3 Zrotation Xrotation Yrotation
                  End Site
                  {
                    OFFSET 1.78271 -1.18214 1.43049
                  }
                }
              }
              JOINT lIndex1
              {
                OFFSET 7.75947 0.938293 5.60832
                CHANNELS 3 Zrotation Xrotation Yrotation
                JOINT lIndex2
                {
                  OFFSET 2.54057 -0.884171 1.56538
                  CHANNELS 3 Zrotation Xrotation Yrotation
                  End Site
                  {
                    OFFSET 1.62519 -0.234802 1.16502
                  }
                }
              }
              JOINT lMid1
              {
                OFFSET 8.24714 1.18213 3.41376
                CHANNELS 3 Zrotation Xrotation Yrotation
                JOINT lMid2
                {
                  OFFSET 3.10165 -0.590103 1.0647
                  CHANNELS 3 Zrotation Xrotation Yrotation
                  End Site
                  {
                    OFFSET 2.48547 -0.328903 0.83742
                  }
                }
              }
              JOINT lRing1
              {
                OFFSET 8.82822 0.546677 1.51678
                CHANNELS 3 Zrotation Xrotation Yrotation
                JOINT lRing2
                {
                  OFFSET 2.60934 -0.819778 -0.0198488
                  CHANNELS 3 Zrotation Xrotation Yrotation
                  End Site
                  {
                    OFFSET 2.33842 -0.294052 0.168128
                  }
                }
              }
              JOINT lPinky1
              {
                OFFSET 8.27202 -0.0477905 -0.4584
                CHANNELS 3 Zrotation Xrotation Yrotation
                JOINT lPinky2
                {
                  OFFSET 1.82734 -0.647385 -0.700984
                  CHANNELS 3 Zrotation Xrotation Yrotation
                  End Site
                  {
                    OFFSET 1.69225 -0.51767 -0.607171
                  }
                }
              }
            }
          }
        }
      }
    }
  }
  JOINT rButtock
  {
    OFFSET -8.77824 4.35084 1.2192
    CHANNELS 3 Zrotation Xrotation Yrotation
    JOINT rThigh
    {
      OFFSET 0 -1.70687 -2.19456
      CHANNELS 3 Zrotation Xrotation Yrotation
      JOINT rShin
      {
        OFFSET 0 -36.8199 0.73152
        CHANNELS 3 Zrotation Xrotation Yrotation
        JOINT rFoot
        {
          OFFSET 0.73152 -45.1104 -5.12064
          CHANNELS 3 Zrotation Xrotation Yrotation
          End Site
          {
            OFFSET -1.1221 -3.69964 12.103
          }
        }
      }
    }
  }
  JOINT lButtock
  {
    OFFSET 8.77824 4.35084 1.2192
    CHANNELS 3 Zrotation Xrotation Yrotation
    JOINT lThigh
    {
      OFFSET 0 -1.70687 -2.19456
      CHANNELS 3 Zrotation Xrotation Yrotation
      JOINT lShin
      {
        OFFSET 0 -36.8199 0.73152
        CHANNELS 3 Zrotation Xrotation Yrotation
        JOINT lFoot
        {
          OFFSET -0.73152 -45.1104 -5.12064
          CHANNELS 3 Zrotation Xrotation Yrotation
          End Site
          {
            OFFSET 1.1221 -3.69964 12.103
          }
        }
      }
    }
  }
}
MOTION
Frames:	4
Frame Time:	0.00833333
0.000000 0.000000 0.000000 2.499937 -4.450631 4.405009 3.561473 -0.407173 -4.974571 -4.113415 2.694849 -1.049151 -2.653314 1.254216 3.723305 -3.284796 0.655871 0.010973 -3.167994 -4.508834 -1.841682 3.265056 -3.046408 4.214785 -3.266735 2.891211 -0.390627 -1.516914 -3.116476 -4.987888 -1.065517 -3.423688 -4.920837 -1.270626 -2.574003 -4.959688 1.155069 2.697839 2.082300 -3.461748 2.003217 0.661631 2.037889 -0.034868 1.737766 3.556689 -2.046989 4.091730 1.483485 -3.796719 -2.904947 -1.039360 2.756795 -0.283402 -3.380662 1.166187 3.087044 -0.307088 1.689489 -4.312680 0.471645 0.149707 -3.144212 1.759072 -2.386217 4.970618 1.834225 -3.713992 3.575029 -0.301977 1.325199 2.401225 0.557470 2.770845 3.161164 -1.958536 0.545687 4.623956 -4.617709 -0.657500 -4.404406 -4.752256 2.121461 -3.734512 -2.530525 -2.164238 -4.387872 4.519762 -0.212816 1.987835 -2.222348 1.889198 2.491812 2.498360 0.727301 -1.501784 -4.749383 2.582984 -4.498907 4.409208 -1.001526 2.508203 4.371810 -3.227131 -1.444923 1.133382 2.344168 -1.011549 0.102887 -0.831516 -0.686547 -1.099221 1.335903 0.519023 0.033848 -1.241726 -1.630916 -0.944339 2.476009 -4.779019 -1.328890 -1.195269 -3.692399 4.639148 -4.305167 0.023057 4.714410 -0.020524 3.544815 -0.434414 -4.056676 0.356012
0.000100 62.185200 0.059200 -4.080314 -88.913288 0.768950 -2.167111 0.916708 -2.178312 13.967145 3.959120 -61.693897 -10.669393 -8.735153 -123.580714 32.449781 -29.714873 34.555142 57.741030 0.717501 -3.641132 16.659005 -16.521600 -81.721382 -52.924836 -85.843621 -154.707601 -158.634092 30.988787 168.807310 -0.984849 75.449834 173.278269 -175.520698 53.711975 73.784225 3.243092 -13.172039 48.296365 171.883631 14.473842 -86.191409 161.702665 29.408694 -123.537035 -21.297361 33.565918 -83.645562 -45.223817 -1.375952 -114.004058 137.507938 -50.727606 114.362506 91.536780 18.312744 -79.932814 5.763751 -32.115303 -11.464410 28.046443 7.826406 -65.508838 -14.549737 -34.440148 -10.297501 82.088541 -43.811747 -169.344755 170.790618 -37.430091 -175.807369 1.934764 53.332931 -168.962275 -176.190801 26.622359 -108.001797 -13.779110 -29.081196 -15.647124 -159.816006 -59.113242 -98.870478 151.166649 10.095416 -87.213100 79.268412 46.299053 -74.879323 -9.533484 -15.355188 -35.394964 97.833815 73.765806 -57.750691 -95.632110 -11.564465 77.207361 161.899677 -50.699262 -176.459195 46.937029 42.954907 101.978733 153.157805 44.657281 148.752830 15.787220 -50.931867 22.794269 -2.791019 56.687464 -5.151922 -4.220275 -8.419934 1.256151 66.492736 -23.964799 -97.535414 -6.028532 -52.651604 -3.633380 1.033250 56.129203 -2.019597 9.926925 -2.209450 66.562968 -1.253199 -71.276786 171.975785
0.554700 63.419000 0.645400 -7.162446 53.564739 -9.921643 2.424835 19.239297 -0.237459 -5.144096 -8.490094 1.999591 -8.536553 23.590623 -93.431957 45.998496 11.943022 91.094296 -6.909087 -1.872174 18.798687 12.269503 -0.589480 8.230895 -76.092545 69.842404 79.902660 53.599054 -10.369057 62.384023 -3.340495 -30.683436 95.322446 -6.437134 -15.377059 -14.983924 -174.592712 -20.398598 94.211671 -163.172542 -17.495215 84.955926 -144.477148 -16.849864 124.336572 -19.999502 61.745954 11.581996 0.158660 4.833454 9.124273 -162.972577 -21.754462 152.896748 -133.317023 37.575889 157.197414 62.643153 -59.968357 40.746400 -13.033856 69.383533 27.490350 -1.840664 -50.827416 -25.352415 1.834301 -15.314839 -5.465622 -63.871069 17.462388 -15.666730 -173.012617 6.784366 -67.967616 -172.193243 -14.587380 -137.163297 137.847940 28.371086 -86.588966 12.646548 -38.120743 7.147521 -9.481043 22.383440 -5.613146 10.319579 -9.051785 10.855525 127.744023 47.131484 -133.046757 136.777439 -81.014850 157.597171 8.078924 20.536214 -4.015042 -20.647019 10.435787 -2.842685 129.752447 33.541297 149.385958 -34.531049 13.177017 -6.044887 -180.040276 75.936814 -4.768131 141.140977 47.218523 137.171811 63.440525 -20.763266 91.841806 72.216286 -9.547641 169.972784 6.949039 4.458624 0.229017 63.275403 -48.051227 -107.408783 -54.958289 -66.287756 -143.097966 -6.489316 20.273614 -92.694071
1.294500 63.913100 0.319500 -15.066119 58.030185 -15.403222 6.009772 14.598882 -5.594605 0.458149 -11.458872 6.133828 -11.397074 32.600444 -131.398222 24.867013 35.071080 135.252016 -10.010943 -2.153234 23.138196 26.964877 1.850313 -3.536029 -2.167017 -2.325870 -6.402901 -98.502386 -20.754305 -150.051367 5.690943 -1.060281 -133.269407 -174.319443 4.966352 142.573475 -178.278889 -9.879500 98.148487 -168.663007 -19.489122 91.911711 -139.848874 -6.255527 122.985046 -3.227236 35.960793 7.735540 -165.604345 -2.216820 144.618218 -6.351241 2.229064 5.578480 -18.804648 -59.906070 -20.742350 -147.946320 -53.206578 -160.535674 -175.974831 65.379230 -131.773610 -146.137778 -26.809684 -118.940615 142.048235 28.644592 -153.944511 -144.180386 2.649701 -160.911629 -160.354998 -18.590445 -59.737501 -173.019520 -1.515342 -145.761447 174.979917 -6.248030 -100.813120 130.809337 17.706368 -85.492517 9.187602 -2.135177 0.124932 38.322583 42.199683 -11.932224 164.975005 -25.812364 -158.150131 171.777105 34.274676 -154.202607 18.421933 -12.637529 17.382290 -20.026165 -48.086955 -4.277745 144.300292 25.973354 151.475332 12.267539 -46.399445 17.339223 -162.001965 75.105822 -20.111770 141.204577 57.328869 -151.169307 -14.932376 -54.941368 -55.074395 99.434926 29.259654 169.627319 0.446701 -3.132396 -4.135632 49.469367 -43.521018 -55.992703 -70.628693 2.718399 -159.227845 45.127263 92.325306 -139.026523
